# Blender v2.92.0 OBJ File: ''
# www.blender.org
mtllib Horn.mtl
o SM_Env_Bone_Horn_01_Mesh.001
v -0.003031 -0.001495 0.010019
v 0.004614 -0.001477 0.009144
v 0.009556 -0.001470 0.002923
v 0.008900 -0.001477 -0.005001
v 0.003031 -0.001494 -0.009985
v -0.004614 -0.001512 -0.009109
v -0.009556 -0.001519 -0.002888
v -0.008900 -0.001512 0.005036
v -0.003635 0.010392 0.008835
v 0.002944 0.010431 0.008083
v 0.007065 0.010407 0.002900
v 0.006314 0.010335 -0.003679
v 0.001130 0.010256 -0.007800
v -0.005449 0.010217 -0.007048
v -0.009570 0.010241 -0.001865
v -0.008819 0.010313 0.004714
v -0.002919 0.020712 0.008510
v 0.002250 0.024070 0.007040
v 0.006948 0.021882 0.001964
v 0.005144 0.025071 -0.003297
v 0.000010 0.022202 -0.007526
v -0.005855 0.023005 -0.006167
v -0.009080 0.020262 -0.001663
v -0.007709 0.022938 0.005353
v -0.004672 0.035084 0.004432
v 0.000059 0.034558 0.003276
v 0.003031 0.037698 -0.001815
v 0.002593 0.036507 -0.006387
v -0.002092 0.037235 -0.009611
v -0.006922 0.034381 -0.009310
v -0.010611 0.034354 -0.004845
v -0.009077 0.033063 0.001339
v -0.007283 0.042978 0.003299
v -0.002730 0.045275 0.002330
v -0.000411 0.045929 -0.001240
v -0.003231 0.049251 -0.005604
v -0.005236 0.047672 -0.006893
v -0.009553 0.047740 -0.005664
v -0.011031 0.044814 -0.002828
v -0.010239 0.044487 0.001207
v -0.009030 0.051870 0.006556
v -0.006306 0.052219 0.006342
v -0.004632 0.053399 0.004501
v -0.004989 0.054719 0.002110
v -0.007167 0.055405 0.000569
v -0.010648 0.054906 0.001260
v -0.011564 0.053876 0.002624
v -0.011208 0.052556 0.005016
v -0.010647 0.059068 0.011041
v -0.009333 0.059322 0.010714
v -0.008688 0.060247 0.009924
v -0.009089 0.061300 0.009132
v -0.010301 0.061865 0.008803
v -0.011614 0.061610 0.009130
v -0.012260 0.060686 0.009920
v -0.011859 0.059633 0.010712
v -0.008797 0.067864 0.016929
v -0.007853 0.011730 0.004312
v -0.008584 0.011406 -0.001582
v -0.005008 0.011662 -0.006123
v 0.000770 0.011612 -0.006853
v 0.005375 0.011961 -0.003178
v 0.006148 0.011699 0.002540
v 0.002426 0.011937 0.007139
v -0.003284 0.011570 0.007879
v -0.007003 0.024157 0.004200
v -0.008134 0.022137 -0.001768
v -0.005318 0.024400 -0.005671
v -0.000258 0.023923 -0.006776
v 0.004134 0.026209 -0.003161
v 0.005618 0.023721 0.001339
v 0.001644 0.025242 0.005794
v -0.002779 0.022557 0.007022
v -0.008184 0.034853 0.000880
v -0.009661 0.036162 -0.004214
v -0.006653 0.036000 -0.007872
v -0.002844 0.038569 -0.008121
v 0.000943 0.037709 -0.005752
v 0.001408 0.038706 -0.001843
v -0.000831 0.035848 0.002135
v -0.004942 0.036481 0.003189
v -0.009742 0.045941 0.001318
v -0.010242 0.046021 -0.001989
v -0.009179 0.048577 -0.004104
v -0.005523 0.048273 -0.005177
v -0.003927 0.049648 -0.003959
v -0.001728 0.046772 -0.000616
v -0.003722 0.046472 0.002289
v -0.007226 0.044454 0.002914
v -0.010726 0.053854 0.005627
v -0.011015 0.054874 0.003916
v -0.010318 0.055682 0.002898
v -0.007807 0.056050 0.002392
v -0.006188 0.055518 0.003472
v -0.005899 0.054499 0.005183
v -0.007108 0.053589 0.006523
v -0.009107 0.053322 0.006707
v -0.012648 0.060204 0.009347
v -0.011820 0.061367 0.008314
v -0.010008 0.061704 0.007877
v -0.008417 0.060989 0.008384
v -0.007921 0.059653 0.009500
v -0.008808 0.058478 0.010571
v -0.010560 0.058153 0.010970
v -0.012151 0.058868 0.010463
v -0.002256 -0.004233 0.007462
v 0.003434 -0.004220 0.006810
v 0.007112 -0.004215 0.002180
v 0.006624 -0.004220 -0.003717
v 0.002256 -0.004233 -0.007427
v -0.003434 -0.004246 -0.006776
v -0.007112 -0.004251 -0.002145
v -0.006624 -0.004246 0.003752
v 0.000000 -0.006621 0.000017
vt 0.005824 0.306555
vt 0.005824 0.306555
vt 0.005824 0.306555
vt 0.005824 0.306555
vt 0.006491 0.305888
vt 0.006491 0.305888
vt 0.006491 0.305888
vt 0.006491 0.305888
vt 0.006491 0.305888
vt 0.006491 0.305888
vt 0.006491 0.305888
vt 0.006491 0.305888
vt 0.006491 0.305888
vt 0.006491 0.305888
vt 0.006491 0.305888
vt 0.006491 0.305888
vt 0.006491 0.305888
vt 0.006491 0.305888
vt 0.006491 0.305888
vt 0.006491 0.305888
vt 0.006491 0.275877
vt 0.006491 0.275877
vt 0.006491 0.275877
vt 0.006491 0.275877
vt 0.006491 0.275877
vt 0.006491 0.275877
vt 0.006491 0.275877
vt 0.006491 0.275877
vt 0.006491 0.275877
vt 0.006491 0.275877
vt 0.006491 0.275877
vt 0.006491 0.275877
vt 0.006491 0.275877
vt 0.006491 0.275877
vt 0.006491 0.275877
vt 0.006491 0.275877
vt 0.005157 0.305221
vt 0.005157 0.305221
vt 0.005157 0.305221
vt 0.005157 0.305221
vt 0.005157 0.305221
vt 0.005157 0.305221
vt 0.005157 0.305221
vt 0.005157 0.305221
vt 0.005157 0.305221
vt 0.005157 0.305221
vt 0.005157 0.305221
vt 0.005157 0.305221
vt 0.005157 0.305221
vt 0.005157 0.305221
vt 0.005157 0.305221
vt 0.005157 0.305221
vt 0.005157 0.305221
vt 0.005157 0.305221
vt 0.005157 0.305221
vt 0.005157 0.305221
vt 0.005157 0.305221
vt 0.005157 0.305221
vt 0.005157 0.305221
vt 0.005157 0.305221
vt 0.005157 0.305221
vt 0.005157 0.305221
vt 0.005157 0.305221
vt 0.005157 0.305221
vt 0.005157 0.305221
vt 0.005157 0.305221
vt 0.005157 0.305221
vt 0.005157 0.305221
vt 0.005157 0.305221
vt 0.005157 0.305221
vt 0.005157 0.305221
vt 0.005157 0.305221
vt 0.005157 0.305221
vt 0.005157 0.305221
vt 0.005157 0.305221
vt 0.005157 0.305221
vt 0.005157 0.305221
vt 0.005157 0.305221
vt 0.005157 0.305221
vt 0.005157 0.305221
vt 0.005157 0.305221
vt 0.005157 0.305221
vt 0.005157 0.305221
vt 0.005157 0.305221
vt 0.007060 0.329326
vt 0.007060 0.329326
vt 0.007060 0.329326
vt 0.007060 0.329326
vt 0.007060 0.329326
vt 0.007060 0.329326
vt 0.007060 0.329326
vt 0.007060 0.329326
vt 0.007060 0.329326
vt 0.007060 0.329326
vt 0.007060 0.329326
vt 0.007060 0.329326
vt 0.007060 0.329326
vt 0.007060 0.329326
vt 0.007060 0.329326
vt 0.007060 0.329326
vt 0.005124 0.378580
vt 0.005124 0.378580
vt 0.005124 0.378580
vt 0.005124 0.378580
vt 0.005124 0.378580
vt 0.005124 0.378580
vt 0.005124 0.378580
vt 0.005124 0.378580
vt 0.005124 0.378580
vt 0.004490 0.327230
vt 0.004490 0.327230
vt 0.004490 0.327230
vt 0.004490 0.327230
vt 0.004490 0.327230
vt 0.004490 0.327230
vt 0.004490 0.327230
vt 0.004490 0.327230
vt 0.004490 0.327230
vt 0.004490 0.327230
vt 0.004490 0.327230
vt 0.004490 0.327230
vt 0.004490 0.327230
vt 0.004490 0.327230
vt 0.004490 0.327230
vt 0.004490 0.327230
vt 0.004490 0.352573
vt 0.004490 0.352573
vt 0.004490 0.352573
vt 0.004490 0.352573
vt 0.004490 0.352573
vt 0.004490 0.352573
vt 0.004490 0.352573
vt 0.004490 0.352573
vt 0.004490 0.352573
vt 0.004490 0.352573
vt 0.004490 0.352573
vt 0.004490 0.352573
vt 0.004490 0.352573
vt 0.004490 0.352573
vt 0.004490 0.352573
vt 0.004490 0.352573
vt 0.004490 0.352573
vt 0.004490 0.352573
vt 0.004490 0.352573
vt 0.004490 0.352573
vt 0.004490 0.352573
vt 0.004490 0.352573
vt 0.004490 0.352573
vt 0.004490 0.352573
vt 0.004490 0.352573
vt 0.004490 0.352573
vt 0.004490 0.352573
vt 0.004490 0.352573
vt 0.004490 0.352573
vt 0.004490 0.352573
vt 0.004490 0.352573
vt 0.004490 0.352573
vt 0.004490 0.352573
vt 0.004490 0.352573
vt 0.004490 0.352573
vt 0.004490 0.352573
vt 0.004490 0.352573
vt 0.004490 0.352573
vt 0.004490 0.352573
vt 0.004490 0.352573
vt 0.004490 0.352573
vt 0.004490 0.352573
vt 0.004490 0.352573
vt 0.004490 0.352573
vt 0.004490 0.352573
vt 0.004490 0.352573
vt 0.004490 0.352573
vt 0.004490 0.352573
vt 0.005124 0.378580
vt 0.005124 0.378580
vt 0.005124 0.378580
vt 0.005124 0.378580
vt 0.005124 0.378580
vt 0.005124 0.378580
vt 0.005124 0.378580
vt 0.005124 0.378580
vt 0.005124 0.378580
vt 0.005124 0.378580
vt 0.005124 0.378580
vt 0.005124 0.378580
vt 0.005124 0.378580
vt 0.005124 0.378580
vt 0.005124 0.378580
vt 0.005124 0.378580
vt 0.005074 0.352743
vt 0.005074 0.352743
vt 0.005074 0.352743
vt 0.005074 0.352743
vt 0.005074 0.352743
vt 0.005074 0.352743
vt 0.005074 0.352743
vt 0.005074 0.352743
vt 0.005074 0.352743
vt 0.005074 0.352743
vt 0.005074 0.352743
vt 0.005074 0.352743
vt 0.005074 0.352743
vt 0.005074 0.352743
vt 0.005074 0.352743
vt 0.005074 0.352743
vt 0.002195 0.302755
vt 0.002195 0.302755
vt 0.002195 0.302755
vt 0.002195 0.302755
vt 0.002195 0.302755
vt 0.002195 0.302755
vt 0.002195 0.302755
vt 0.002195 0.302755
vt 0.002195 0.302755
vt 0.002195 0.302755
vt 0.002195 0.302755
vt 0.002195 0.302755
vt 0.002195 0.302755
vt 0.002195 0.302755
vt 0.002195 0.302755
vt 0.002195 0.302755
vt 0.002195 0.302755
vn 0.1126 0.1040 0.9882
vn 0.7725 0.1631 0.6137
vn 0.9722 0.2136 -0.0955
vn 0.6176 0.2295 -0.7522
vn -0.1127 0.1641 -0.9800
vn -0.7817 0.0534 -0.6213
vn -0.9953 -0.0000 0.0966
vn -0.6356 0.0350 0.7712
vn 0.0794 0.5792 0.8113
vn 0.6492 0.5685 0.5053
vn 0.8378 0.5376 -0.0956
vn 0.5075 0.5452 -0.6672
vn -0.0985 0.5549 -0.8260
vn -0.6445 0.5818 -0.4961
vn -0.7939 0.6034 0.0751
vn -0.4982 0.5868 0.6383
vn -0.1956 0.6416 0.7417
vn 0.6698 0.6517 0.3558
vn 0.7738 0.6251 0.1028
vn 0.4205 0.4348 -0.7963
vn -0.1612 0.3784 -0.9115
vn -0.8366 0.4210 -0.3504
vn -0.8823 0.4707 -0.0002
vn -0.1908 0.6706 0.7169
vn 0.2579 0.7012 0.6647
vn 0.3298 0.6891 0.6453
vn 0.5050 0.8212 -0.2657
vn 0.4378 0.7838 -0.4405
vn -0.4216 0.6029 -0.6773
vn -0.6392 0.5514 -0.5362
vn -0.8484 0.4193 0.3232
vn -0.6484 0.4535 0.6116
vn 0.0927 0.1880 0.9778
vn 0.6383 0.5766 0.5100
vn 0.6499 0.7403 0.1720
vn -0.4222 0.8279 -0.3693
vn -0.0725 0.9140 -0.3991
vn -0.8901 0.4535 0.0453
vn -0.9093 0.3748 0.1807
vn -0.4842 0.1715 0.8580
vn 0.0947 -0.0874 0.9917
vn 0.6225 0.2634 0.7370
vn 0.7147 0.6501 0.2581
vn 0.4066 0.8973 -0.1720
vn -0.2073 0.8983 -0.3874
vn -0.8110 0.5756 -0.1049
vn -0.9425 0.2042 0.2647
vn -0.5916 -0.1334 0.7952
vn 0.3006 -0.5734 0.7622
vn 0.8815 -0.3127 0.3538
vn 0.9559 0.2062 -0.2093
vn 0.4682 0.6673 -0.5793
vn -0.2871 0.7952 -0.5340
vn -0.8540 0.5103 -0.1008
vn -0.8946 -0.0047 0.4468
vn -0.4209 -0.4418 0.7923
vn -0.9858 -0.0252 0.1663
vn -0.7890 -0.0562 -0.6118
vn -0.1795 -0.0453 -0.9827
vn 0.6301 0.0004 -0.7765
vn 0.9709 -0.0309 -0.2376
vn 0.7542 -0.0012 0.6567
vn 0.2077 -0.0263 0.9778
vn -0.5913 -0.0513 0.8048
vn -0.9645 -0.1458 0.2203
vn -0.7030 -0.3212 -0.6345
vn -0.0698 -0.2767 -0.9584
vn 0.6103 -0.1140 -0.7840
vn 0.9749 0.1159 -0.1900
vn 0.7531 0.2799 0.5954
vn 0.1878 0.2519 0.9494
vn -0.5658 0.1034 0.8180
vn -0.9589 -0.1986 0.2027
vn -0.8077 -0.0659 -0.5859
vn -0.2097 0.1069 -0.9719
vn 0.5021 0.2155 -0.8375
vn 0.9120 0.3023 -0.2771
vn 0.8124 0.1545 0.5623
vn 0.2199 0.0399 0.9747
vn -0.5675 -0.1764 0.8043
vn -0.9677 -0.2366 0.0873
vn -0.9076 0.1070 -0.4060
vn -0.2083 0.5935 -0.7774
vn 0.3393 0.6921 -0.6371
vn 0.9067 0.4083 -0.1055
vn 0.8010 -0.0839 0.5928
vn 0.2746 -0.4154 0.8672
vn -0.6304 -0.4700 0.6178
vn -0.9542 -0.2987 0.0167
vn -0.8684 0.1997 -0.4539
vn -0.2624 0.6229 -0.7370
vn 0.5191 0.6848 -0.5115
vn 0.9367 0.3487 0.0300
vn 0.8108 -0.1667 0.5610
vn 0.2141 -0.5937 0.7757
vn -0.5238 -0.6557 0.5438
vn -0.8028 0.5953 0.0327
vn -0.2352 0.9441 -0.2308
vn 0.4190 0.9079 -0.0145
vn 0.7001 0.5873 0.4061
vn 0.6003 0.2384 0.7634
vn 0.2367 -0.0363 0.9709
vn -0.3398 -0.1361 0.9306
vn -0.8404 0.1081 0.5310
vn 0.0863 -0.6669 0.7401
vn 0.5923 -0.6546 0.4697
vn 0.7537 -0.6543 -0.0618
vn 0.4836 -0.6667 -0.5672
vn -0.0832 -0.6675 -0.7399
vn -0.5906 -0.6560 -0.4699
vn -0.7523 -0.6558 0.0628
vn -0.4809 -0.6673 0.5687
vn 0.0383 -0.9481 0.3157
vn 0.2576 -0.9446 0.2035
vn 0.3275 -0.9445 -0.0263
vn 0.2076 -0.9480 -0.2412
vn -0.0338 -0.9486 -0.3145
vn -0.2535 -0.9459 -0.2025
vn -0.3235 -0.9458 0.0276
vn -0.2032 -0.9486 0.2426
usemtl lambert2
s 1
f 1/1/1 2/2/1 10/3/1 9/4/1
f 2/5/2 3/6/2 11/7/2 10/8/2
f 3/6/3 4/9/3 12/10/3 11/7/3
f 4/9/4 5/11/4 13/12/4 12/10/4
f 5/11/5 6/13/5 14/14/5 13/12/5
f 6/13/6 7/15/6 15/16/6 14/14/6
f 7/15/7 8/17/7 16/18/7 15/16/7
f 8/17/8 1/19/8 9/20/8 16/18/8
f 9/21/9 10/22/9 64/23/9 65/24/9
f 10/22/10 11/25/10 63/26/10 64/23/10
f 11/25/11 12/27/11 62/28/11 63/26/11
f 12/27/12 13/29/12 61/30/12 62/28/12
f 13/29/13 14/31/13 60/32/13 61/30/13
f 14/31/14 15/33/14 59/34/14 60/32/14
f 15/33/15 16/35/15 58/36/15 59/34/15
f 16/35/16 9/21/16 65/24/16 58/36/16
f 17/37/17 18/38/17 72/39/17 73/40/17
f 18/38/18 19/41/18 71/42/18 72/39/18
f 19/41/19 20/43/19 70/44/19 71/42/19
f 20/43/20 21/45/20 69/46/20 70/44/20
f 21/45/21 22/47/21 68/48/21 69/46/21
f 22/47/22 23/49/22 67/50/22 68/48/22
f 23/49/23 24/51/23 66/52/23 67/50/23
f 24/51/24 17/37/24 73/40/24 66/52/24
f 25/53/25 26/54/25 80/55/25 81/56/25
f 26/54/26 27/57/26 79/58/26 80/55/26
f 27/57/27 28/59/27 78/60/27 79/58/27
f 28/59/28 29/61/28 77/62/28 78/60/28
f 29/61/29 30/63/29 76/64/29 77/62/29
f 30/63/30 31/65/30 75/66/30 76/64/30
f 31/65/31 32/67/31 74/68/31 75/66/31
f 32/67/32 25/53/32 81/56/32 74/68/32
f 33/69/33 34/70/33 88/71/33 89/72/33
f 34/70/34 35/73/34 87/74/34 88/71/34
f 35/73/35 36/75/35 86/76/35 87/74/35
f 36/75/36 37/77/36 85/78/36 86/76/36
f 37/77/37 38/79/37 84/80/37 85/78/37
f 38/79/38 39/81/38 83/82/38 84/80/38
f 39/81/39 40/83/39 82/84/39 83/82/39
f 40/83/40 33/69/40 89/72/40 82/84/40
f 41/85/41 42/86/41 96/87/41 97/88/41
f 42/86/42 43/89/42 95/90/42 96/87/42
f 43/89/43 44/91/43 94/92/43 95/90/43
f 44/91/44 45/93/44 93/94/44 94/92/44
f 45/93/45 46/95/45 92/96/45 93/94/45
f 46/95/46 47/97/46 91/98/46 92/96/46
f 47/97/47 48/99/47 90/100/47 91/98/47
f 48/99/48 41/85/48 97/88/48 90/100/48
f 49/101/49 50/102/49 57/103/49
f 50/102/50 51/104/50 57/103/50
f 51/104/51 52/105/51 57/103/51
f 52/105/52 53/106/52 57/103/52
f 53/106/53 54/107/53 57/103/53
f 54/107/54 55/108/54 57/103/54
f 55/108/55 56/109/55 57/103/55
f 56/109/56 49/101/56 57/103/56
f 59/110/57 58/111/57 24/112/57 23/113/57
f 60/114/58 59/110/58 23/113/58 22/115/58
f 61/116/59 60/114/59 22/115/59 21/117/59
f 62/118/60 61/116/60 21/117/60 20/119/60
f 63/120/61 62/118/61 20/119/61 19/121/61
f 64/122/62 63/120/62 19/121/62 18/123/62
f 65/124/63 64/122/63 18/123/63 17/125/63
f 58/111/64 65/124/64 17/125/64 24/112/64
f 67/126/65 66/127/65 32/128/65 31/129/65
f 68/130/66 67/126/66 31/129/66 30/131/66
f 69/132/67 68/130/67 30/131/67 29/133/67
f 70/134/68 69/132/68 29/133/68 28/135/68
f 71/136/69 70/134/69 28/135/69 27/137/69
f 72/138/70 71/136/70 27/137/70 26/139/70
f 73/140/71 72/138/71 26/139/71 25/141/71
f 66/127/72 73/140/72 25/141/72 32/128/72
f 75/142/73 74/143/73 40/144/73 39/145/73
f 76/146/74 75/142/74 39/145/74 38/147/74
f 77/148/75 76/146/75 38/147/75 37/149/75
f 78/150/76 77/148/76 37/149/76 36/151/76
f 79/152/77 78/150/77 36/151/77 35/153/77
f 80/154/78 79/152/78 35/153/78 34/155/78
f 81/156/79 80/154/79 34/155/79 33/157/79
f 74/143/80 81/156/80 33/157/80 40/144/80
f 83/158/81 82/159/81 48/160/81 47/161/81
f 84/162/82 83/158/82 47/161/82 46/163/82
f 85/164/83 84/162/83 46/163/83 45/165/83
f 86/166/84 85/164/84 45/165/84 44/167/84
f 87/168/85 86/166/85 44/167/85 43/169/85
f 88/170/86 87/168/86 43/169/86 42/171/86
f 89/172/87 88/170/87 42/171/87 41/173/87
f 82/159/88 89/172/88 41/173/88 48/160/88
f 91/174/89 90/175/89 105/176/89 98/177/89
f 92/178/90 91/174/90 98/177/90 99/179/90
f 93/180/91 92/178/91 99/179/91 100/181/91
f 94/182/92 93/180/92 100/181/92 101/183/92
f 95/184/93 94/182/93 101/183/93 102/185/93
f 96/186/94 95/184/94 102/185/94 103/187/94
f 97/188/95 96/186/95 103/187/95 104/189/95
f 90/175/96 97/188/96 104/189/96 105/176/96
f 99/190/97 98/191/97 55/192/97 54/193/97
f 100/194/98 99/190/98 54/193/98 53/195/98
f 101/196/99 100/194/99 53/195/99 52/197/99
f 102/198/100 101/196/100 52/197/100 51/199/100
f 103/200/101 102/198/101 51/199/101 50/201/101
f 104/202/102 103/200/102 50/201/102 49/203/102
f 105/204/103 104/202/103 49/203/103 56/205/103
f 98/191/104 105/204/104 56/205/104 55/192/104
f 2/206/105 1/207/105 106/208/105 107/209/105
f 3/210/106 2/206/106 107/209/106 108/211/106
f 4/212/107 3/210/107 108/211/107 109/213/107
f 5/214/108 4/212/108 109/213/108 110/215/108
f 6/216/109 5/214/109 110/215/109 111/217/109
f 7/218/110 6/216/110 111/217/110 112/219/110
f 8/220/111 7/218/111 112/219/111 113/221/111
f 1/207/112 8/220/112 113/221/112 106/208/112
f 107/209/113 106/208/113 114/222/113
f 108/211/114 107/209/114 114/222/114
f 109/213/115 108/211/115 114/222/115
f 110/215/116 109/213/116 114/222/116
f 111/217/117 110/215/117 114/222/117
f 112/219/118 111/217/118 114/222/118
f 113/221/119 112/219/119 114/222/119
f 106/208/120 113/221/120 114/222/120
